<mxfile host="app.diagrams.net" modified="2023-07-07T17:04:16.499Z" agent="Mozilla/5.0 (Macintosh; Intel Mac OS X 10_15_7) AppleWebKit/537.36 (KHTML, like Gecko) Chrome/114.0.0.0 Safari/537.36" version="21.6.1" etag="v9VaHOPfGCPU5kIg-zZi" type="github">
  <diagram name="Page-1" id="_NH3yeCqxfwpX1qye_p6">
    <mxGraphModel>
      <root>
        <mxCell id="0" />
        <mxCell id="1" parent="0" />
      </root>
    </mxGraphModel>
  </diagram>
</mxfile>
